<?xml version="1.0" encoding="UTF-8" standalone="no"?>
<!DOCTYPE svg PUBLIC "-//W3C//DTD SVG 1.1//EN" "http://www.w3.org/Graphics/SVG/1.1/DTD/svg11.dtd">
<svg width="100%" height="100%" viewBox="0 0 887 912" version="1.1" xmlns="http://www.w3.org/2000/svg" xmlns:xlink="http://www.w3.org/1999/xlink" xml:space="preserve" xmlnsSerif="http://www.serif.com/" style="fill-rule:evenodd;clip-rule:evenodd;stroke-linecap:round;stroke-linejoin:round;stroke-miterlimit:1.5;">
    <g transform="matrix(1,0,0,1,-332.302879,-325.596005)">
        <g id="Big-Logo" serifId="Big Logo" transform="matrix(0.881235,0,0,0.881235,104.472822,92.815243)">
            <g id="Background">
                <g id="Outline" transform="matrix(1.880989,0,0,1.880989,-1001.306397,-89.426787)">
                    <path d="M947.986,199.681C959.185,193.215 972.983,193.215 984.183,199.681C1028.297,225.151 1140.975,290.205 1185.089,315.674C1196.288,322.14 1203.187,334.09 1203.187,347.022L1203.187,579.008C1203.187,591.94 1196.288,603.89 1185.089,610.356C1140.975,635.825 1028.297,700.879 984.183,726.349C972.983,732.815 959.185,732.815 947.986,726.349C903.872,700.879 791.194,635.825 747.08,610.356C735.881,603.89 728.982,591.94 728.982,579.008L728.982,347.022C728.982,334.09 735.881,322.14 747.08,315.674C791.194,290.205 903.872,225.151 947.986,199.681Z" style="stroke:white;stroke-width:2.51px;"/>
                </g>
                <g id="Background1" serifId="Background" transform="matrix(1.715073,0,0,1.715073,-841.016984,-14.744049)">
                    <path d="M956.157,194.964C962.3,191.417 969.869,191.417 976.012,194.964C1014.634,217.262 1154.644,298.097 1193.263,320.394C1199.404,323.939 1203.187,330.492 1203.187,337.584L1203.187,588.446C1203.187,595.538 1199.404,602.091 1193.263,605.636C1154.643,627.933 1014.628,708.771 976.009,731.068C969.868,734.613 962.301,734.613 956.16,731.068C917.541,708.771 777.525,627.933 738.906,605.636C732.765,602.091 728.982,595.538 728.982,588.446L728.982,337.576C728.982,330.489 732.762,323.941 738.9,320.397C777.509,298.106 917.532,217.264 956.157,194.964Z" style="fill:url(#_Linear1);stroke:rgb(206,255,0);stroke-width:13.78px;"/>
                </g>
            </g>
            <g id="Big-Bee" serifId="Big Bee" transform="matrix(1,0,0,1,-9.706715,-8.830936)">
                <g id="Body">
                    <g id="Bee-Bottom" serifId="Bee Bottom">
                        <g id="Stinger" transform="matrix(1.497298,0.0816,-0.065855,1.208384,-488.750105,-227.009648)">
                            <path d="M1047.035,658.995C1054.078,665.757 1076.516,685.894 1091.364,683.26C1109.17,680.101 1062.93,695.609 1060.346,730.072L1060.216,729.455C1064.517,696.538 1052.294,669.006 1047.035,658.995Z" style="fill-opacity:0.55;"/>
                        </g>
                        <g id="Butt" transform="matrix(0.867887,-0.267039,0.36203,1.17661,-134.057155,54.188636)">
                            <ellipse cx="819.058" cy="770.224" rx="218.423" ry="117.77" style="fill:url(#_Radial2);stroke:black;stroke-opacity:0.6;stroke-width:6.56px;"/>
                        </g>
                        <g id="Stripe-6" serifId="Stripe 6" transform="matrix(0.782074,-0.210881,0.20878,0.774282,81.532542,340.447075)">
                            <path d="M957.873,870.682L957.873,596.108C957.873,596.108 974.782,605.805 988.723,622.874L988.723,843.334C988.723,843.334 975.021,860.748 957.873,870.682Z" style="fill-opacity:0.73;"/>
                        </g>
                        <g id="Stripe-5" serifId="Stripe 5" transform="matrix(0.782074,-0.210881,0.305329,1.132345,-40.12257,94.641052)">
                            <path d="M957.873,844.655L957.873,616.79C963.261,617.75 972.933,619.884 988.723,624.617L988.723,835.706C988.723,835.706 973.831,841.806 957.873,844.655Z" style="fill-opacity:0.56;"/>
                        </g>
                        <g id="Stripe-4" serifId="Stripe 4" transform="matrix(0.782074,-0.210881,0.345366,1.280826,-121.752492,-1.847844)">
                            <path d="M957.873,840.938L957.873,623.034C962.588,622.965 972.011,623.36 988.723,625.961L988.723,838.797C982.983,839.45 967.26,841.118 957.873,840.938Z" style="fill-opacity:0.6;"/>
                        </g>
                        <g id="Stripe-3" serifId="Stripe 3" transform="matrix(0.782074,-0.210881,0.360954,1.338634,-183.460061,-25.076586)">
                            <path d="M957.873,833.437L957.873,624.633C961.982,624.09 971.85,623.163 988.723,623.717L988.723,834.06C982.367,834.459 970.088,834.891 957.873,833.437Z" style="fill-opacity:0.43;"/>
                        </g>
                        <g id="Stripe-2" serifId="Stripe 2" transform="matrix(0.782074,-0.210881,0.342491,1.270162,-222.55019,37.793391)">
                            <path d="M957.873,831.933L957.873,630.168C959.544,629.489 966.298,627.319 988.723,624.823L988.723,836.985C982.47,836.258 970.411,834.661 957.873,831.933Z" style="fill-opacity:0.95;"/>
                        </g>
                        <g id="Stripe-1" serifId="Stripe 1" transform="matrix(0.782074,-0.210881,0.291136,1.079707,-237.627781,192.465935)">
                            <path d="M957.873,825.065L957.873,636.893C966.237,632.644 976.57,627.888 988.723,623.196L988.723,837.987C981.334,835.322 969.822,830.867 957.873,825.065Z" style="fill-opacity:0.95;"/>
                        </g>
                    </g>
                    <g id="Mid-Section" transform="matrix(0.442386,-0.136117,0.219695,0.714014,122.347818,351.748607)">
                        <ellipse cx="819.058" cy="770.224" rx="218.423" ry="117.77" style="fill:url(#_Radial3);stroke:black;stroke-width:6.09px;"/>
                    </g>
                </g>
                <g id="Wings" transform="matrix(1,0,0,1,-0.257977,-0.09379)">
                    <g id="Top-Wing-Inside" sserifId="Top Wing Inside" transform="matrix(0.951437,-0.465389,0.465304,0.951263,-239.514073,385.495217)">
                        <path d="M534.123,639.057C538.893,593.566 633.39,557.215 749.098,557.215C867.85,557.215 964.261,595.504 964.261,642.666C964.261,689.829 867.85,728.118 749.098,728.118C713.287,728.118 679.508,724.636 649.791,718.479L676.648,680.774C676.648,680.774 639.877,611.475 552.39,631.905C544.2,633.818 538.225,636.239 534.123,639.057Z" style="fill:url(#_Linear4);"/>
                    </g>
                    <g id="Bottom-Wing-Inside" serifId="Bottom Wing Inside" transform="matrix(1.090433,-0.137925,0.19557,1.546174,-127.493798,-6.509997)">
                        <path d="M668.91,563.356C693.696,559.395 720.761,557.215 749.098,557.215C867.85,557.215 964.261,595.504 964.261,642.666C964.261,689.829 867.85,728.118 749.098,728.118C630.346,728.118 533.934,689.829 533.934,642.666C533.934,633.851 537.303,625.346 543.555,617.343L543.735,617.44C582.278,638.142 623.726,632.619 636.831,630.109L638.742,634.684L668.91,563.356Z" style="fill:url(#_Linear5);"/>
                    </g>
                    <g id="Top-Wing" serifId="Top Wing" transform="matrix(0.914553,-0.45951,0.395704,0.787561,-160.127109,461.530585)">
                        <path d="M639.086,731.592C665.668,736.611 695.502,739.422 727.014,739.422C793.515,739.422 852.531,726.963 889.086,707.575C900.67,701.431 909.925,694.643 916.243,687.27C921.661,680.945 924.842,674.322 924.842,667.294C924.842,660.265 921.661,653.642 916.243,647.318C909.925,639.944 900.67,633.156 889.086,627.013C852.531,607.625 793.515,595.166 727.014,595.166C669.381,595.166 617.367,604.546 580.675,619.669C557.485,629.227 540.537,640.786 532.972,654.072C531.677,656.346 529.389,657.58 527.057,657.261C524.725,656.942 522.747,655.124 521.942,652.563L508.049,608.315C507.044,605.113 508.102,601.532 510.589,599.722C554.87,567.496 632.34,545.871 720.489,545.871C802.9,545.871 875.978,564.747 921.28,593.532C953.52,614.018 971.835,639.971 971.835,667.296C971.835,694.621 953.52,720.575 921.28,741.061C875.978,769.845 802.9,788.722 720.489,788.722C683.436,788.722 648.272,784.92 616.691,778.117C614.591,777.664 612.837,775.992 612.047,773.687C611.257,771.383 611.541,768.768 612.799,766.764L633.062,734.468C634.443,732.267 636.772,731.155 639.086,731.592Z" style="fill:white;fill-opacity:0.99;"/>
                        <path d="M639.087,731.584C638.998,731.576 635.675,730.914 633.402,734.297C633.12,734.715 613.599,767.729 613.461,768.022C611.853,771.439 613.524,775.805 616.971,776.432C649.459,782.338 677.241,783.579 694.92,783.886C694.986,783.887 704.131,783.63 717.05,782.619C719.348,782.44 721.624,782.651 731.917,782.455C805.467,781.053 871.129,764.752 914.795,738.874C920.154,735.698 925.795,731.548 926.727,730.862C953.236,711.36 970.373,685.912 965.379,657.811C958.884,621.269 915.37,587.467 844.587,568.052C741.392,539.747 608.576,550.217 531.058,593.79C529.613,594.602 521.241,599.308 513.466,605C513.069,605.291 512.969,605.767 513.108,606.209C526.89,650.192 526.513,650.789 527.591,651.077C528.003,651.188 528.352,650.93 528.499,650.681C531.036,646.39 541.556,626.787 589.843,609.688C681.549,577.213 827.164,583.954 896.63,624.669C946.624,653.972 939.846,692.146 879.033,718.7C830.747,739.784 755.909,749.815 680.827,742.981C680.394,742.941 670.69,740.019 660.78,736.596C659.495,736.152 659.5,736.138 658.175,735.872C648.445,733.922 641.384,732.161 639.086,731.592C640.454,731.763 647.967,732.769 658.41,733.626C660.418,733.791 660.415,733.679 662.423,733.536C673.106,732.773 681.289,731.779 681.378,731.779C682.188,731.78 764.947,741.007 842.875,719.264C893.824,705.048 919.806,683.557 919.792,667.294C919.775,646.386 877.212,617.914 798.6,606.266C713.755,593.694 615.947,605.004 563.626,634.513C542.243,646.573 538.172,656.635 536.575,658.809C530.832,666.622 519.935,664.284 516.925,654.716C503.122,610.845 502.94,610.903 502.522,608.478C501.581,603.029 503.634,597.425 507.712,594.444C563.976,553.32 668.37,531.871 771.684,541.896C868.962,551.336 954.021,588.151 973.461,644.068C984.448,675.671 972.655,709.286 937.464,736.328C935.492,737.843 926.635,744.65 911.59,752.913C868.346,776.663 800.722,794.908 718.739,794.895C717.04,794.895 705.889,793.772 696.317,792.536C692.539,792.049 683.697,791.587 667.918,789.497C656.734,788.016 637.961,785.159 616.411,779.802C610.81,778.41 608.644,770.865 611.878,765.997C632.647,734.727 632.496,734.558 633.831,733.216C634.808,732.232 635.897,731.848 636.095,731.779C637.619,731.241 638.864,731.552 639.087,731.584Z"/>
                    </g>
                    <g id="Bottom-Wing" serifId="Bottom Wing" transform="matrix(1.013902,-0.141675,0.165568,1.184896,-227.72477,-176.797664)">
                        <path d="M604.034,1029.729L627.343,1011.787C628.871,1010.611 630.98,1010.157 632.977,1010.575C634.973,1010.992 636.6,1012.227 637.322,1013.873C644.252,1029.676 662.382,1043.746 687.946,1055.204C727.998,1073.157 786.12,1084.371 850.725,1084.371C923.05,1084.371 987.252,1070.338 1027.009,1048.514C1051.899,1034.85 1067.125,1018.311 1067.125,1000.086C1067.125,981.861 1051.899,965.321 1027.009,951.658C987.252,929.833 923.05,915.8 850.725,915.8C823.743,915.8 797.891,917.761 774.004,921.352C771.867,921.674 769.689,921.019 768.257,919.624C766.825,918.23 766.347,916.297 766.994,914.526L778.161,883.947C778.874,881.996 780.83,880.566 783.194,880.27C804.728,877.569 827.368,876.127 850.725,876.127C936.977,876.127 1013.442,895.845 1060.854,925.944C1093.703,946.798 1112.751,972.705 1112.751,1000.521C1112.751,1028.338 1093.703,1054.245 1060.854,1075.098C1013.442,1105.198 936.977,1124.915 850.725,1124.915C780.257,1124.915 716.316,1111.773 669.467,1090.552C637.521,1076.081 613.463,1057.804 600.285,1037.424C599.08,1035.56 599.29,1033.261 600.819,1031.581C601.65,1030.666 602.785,1030.031 604.034,1029.729Z" style="fill:white;fill-opacity:0.99;"/>
                        <path d="M846.406,876.144C848.932,876.125 851.727,876.12 854.761,876.142C857.995,876.164 878.911,874.655 908.997,876.184C909.021,876.185 923.887,877.536 943.337,880.959C1025.681,895.454 1064.933,924.285 1073.582,930.527C1127.588,969.504 1130.768,1019.895 1088.547,1060.003C1078.885,1069.181 1063.133,1081.591 1035.835,1094.064C931.755,1141.623 764.276,1140.722 661.609,1090.77C642.508,1081.477 613.457,1064.474 597.048,1038.945C596.136,1037.527 595.587,1035.484 595.65,1034.018C595.672,1033.517 595.735,1031.37 597.552,1029.173C598.772,1027.697 600.267,1026.832 601.346,1026.351C624.157,1008.758 624.016,1008.562 626.054,1007.566C632.043,1004.638 639.362,1007.179 641.69,1012.16C643.366,1015.747 651.16,1036.315 699.705,1055.486C789.737,1091.039 937.598,1087.935 1017.453,1048.808C1073.574,1021.31 1078.823,984.794 1024.561,954.922C985.697,933.527 920.804,918.937 845.726,919.537C837.713,919.601 827.161,919.426 800.884,921.268C784.393,922.424 774.76,923.898 773.332,923.929C766.902,924.068 762.595,918.661 764.512,913.881C776.478,884.039 776.348,883.993 777.107,882.678C778.073,881.006 780.178,879.416 782.992,879.121C805.78,876.738 827.332,876.496 831.196,876.452C831.673,876.447 832.636,876.416 834.038,876.375C832.256,876.437 830.563,876.514 829.053,876.608C825.383,876.838 805.161,878.102 783.396,881.418C781.99,881.633 780.246,882.513 779.64,884.349C769.55,914.938 769.262,914.919 769.361,916.17C769.505,917.996 771.467,919.218 773.389,918.887C795,915.16 808.185,914.065 815.733,913.502C839.256,911.746 854.964,912.077 859.24,912.138C970.578,913.724 1059.334,948.261 1070.506,990.814C1077.902,1018.982 1051.451,1045.111 1004.677,1063.349C913.521,1098.892 765.865,1096.549 682.233,1057.341C644.185,1039.504 635.379,1020.874 633.192,1016.123C632.996,1015.698 632.689,1014.422 631.364,1014.523C630.315,1014.604 630.446,1014.908 607.199,1032.739C606.78,1032.937 606.417,1033.215 605.998,1033.413C605.605,1033.598 605.608,1033.632 605.158,1033.611C603.979,1033.557 602.999,1034.76 603.34,1035.566C603.341,1035.567 607.408,1042.483 615.922,1051.115C664.838,1100.708 778.6,1128.487 893.779,1119C962.639,1113.328 1028.057,1094.254 1069.584,1063.05C1121.61,1023.957 1121.161,973.619 1066.627,933.882C1051.675,922.987 1033.294,914.651 1030.207,913.25C981.632,891.218 929.376,884.512 909.068,882.243C905.815,881.879 886.244,878.177 855.767,876.166C855.442,876.144 851.482,876.11 846.406,876.144ZM846.406,876.144C840.912,876.185 836.689,876.298 834.038,876.375C838.071,876.235 842.559,876.169 846.406,876.144Z"/>
                    </g>
                    <g transform="matrix(0.882684,0.146131,-0.155391,0.938614,143.757754,-75.780386)">
                        <path d="M826.397,669.768L826.397,903.774C826.397,907.469 823.212,910.465 819.283,910.465L781.5,910.465C777.571,910.465 774.386,907.469 774.386,903.774L774.386,669.768C774.386,666.073 777.571,663.077 781.5,663.077L819.283,663.077C823.212,663.077 826.397,666.073 826.397,669.768Z" style="fill:white;fill-opacity:0.99;"/>
                        <path d="M826.397,793.95C827.108,794.792 828.189,795.314 828.9,796.156C830.04,797.507 831.414,798.827 831.915,800.487C832.07,801.002 831.793,861.297 831.73,903.527C831.73,903.557 832.146,908.796 827.446,912.641C825.159,914.513 822.257,915.509 819.317,915.52C781.947,915.655 781.937,915.802 779.898,915.562C773.618,914.824 768.851,909.788 768.826,903.807C768.634,857.743 767.721,670.478 767.792,669.109C768.148,662.25 774.181,656.851 781.458,656.825C784.569,656.814 819.057,656.692 820.341,656.783C823.019,656.972 826.331,658.438 828.656,660.954C832.416,665.023 831.818,669.575 831.81,669.768L831.542,730.775L826.397,733.105L821.253,730.759L820.985,669.775C820.976,669.758 820.968,669.741 820.96,669.725C820.704,669.208 819.755,668.875 819.393,669.349C819.34,669.418 819.332,669.409 819.241,669.408C781.479,669.341 781.437,669.25 781.216,669.402C780.774,669.706 781.01,669.855 780.924,689.675C780.579,768.614 779.908,903.75 779.972,904.076C780.124,904.843 780.885,905.272 781.456,905.274C818.996,905.417 819.05,905.652 820.001,905.277C820.566,905.054 821.044,904.478 821.062,903.82C821.121,901.716 820.711,801.01 820.88,800.45C821.236,799.273 823.621,796.462 823.895,796.14C824.967,794.878 825.324,795.215 826.397,793.95Z"/>
                    </g>
                </g>
                <g id="Head" transform="matrix(1,0,0,1,237.250633,137.916764)">
                    <g id="Right-Antenna" serifId="Right Antenna" transform="matrix(2.099254,-0.514393,0.611152,2.49413,-221.186608,91.64825)">
                        <path d="M96.208,256.205C96.208,256.205 34.104,240.471 73.592,217.314" style="fill:white;fill-opacity:0;"/>
                        <path d="M79.159,214.049C79.396,214.336 80.759,215.987 80.264,218.318C80.111,219.037 79.794,219.747 79.327,220.363C78.394,221.595 78.259,221.503 76.865,222.374C74.318,223.965 66.79,228.91 67.665,233.248C68.768,238.719 81.284,244.064 81.913,244.36C84.224,245.449 90.946,248.391 97.916,250.523C99.369,250.967 99.436,250.887 100.628,251.712C100.951,251.935 102.813,253.223 103.102,255.588C103.146,255.948 103.401,258.027 101.551,259.925C99.759,261.763 97.362,261.971 96.946,262.007C95.351,262.145 95.342,262.069 93.8,261.701C88.152,260.354 79.731,257.85 73.006,254.547C67.374,251.781 52.669,244.028 53.328,232.04C53.857,222.418 64.164,215.799 69.706,212.631C72.054,211.29 74.377,211.639 74.786,211.701C77.566,212.119 78.923,213.762 79.159,214.049Z" style="fill:white;"/>
                    </g>
                    <g id="Left-Antenna" serifId="Left Antenna" transform="matrix(2.099254,0.514393,0.611152,-2.49413,-221.186608,1308.160927)">
                        <path d="M96.208,256.205C96.208,256.205 34.104,240.471 73.592,217.314" style="fill:white;fill-opacity:0;"/>
                        <path d="M79.159,214.049C78.923,213.762 77.566,212.119 74.786,211.701C73.931,211.572 73.03,211.577 72.182,211.732C70.55,212.029 70.579,212.123 69.203,212.92C64.129,215.858 51.286,223.882 53.573,235.513C55.502,245.317 67.208,251.81 74.21,255.127C74.242,255.142 77.166,256.484 80.159,257.583C80.76,257.804 86.357,259.915 93.714,261.681C95.299,262.061 95.306,262.149 96.946,262.007C97.362,261.971 99.759,261.763 101.551,259.925C103.401,258.027 103.146,255.948 103.102,255.588C102.813,253.223 100.951,251.935 100.628,251.712C99.527,250.95 97.997,250.559 98.207,250.613C99.09,250.838 94.776,249.736 87.597,246.824C84.235,245.46 82.129,244.463 81.664,244.242C81.359,244.098 67.078,237.997 67.607,232.197C68.05,227.347 77.273,222.176 77.475,221.998C78.093,221.453 78.846,220.998 79.327,220.363C80.814,218.401 80.313,216.463 80.227,216.127C79.937,215.006 79.937,214.991 79.159,214.049Z" style="fill:white;"/>
                    </g>
                    <g transform="matrix(0.878982,0,0,1.104631,-172.162926,-223.455393)">
                        <ellipse cx="465.995" cy="832.404" rx="113.556" ry="102.766" style="fill:rgb(206,255,0);"/>
                    </g>
                    <g transform="matrix(0.962679,-0.118016,0.127851,1.042902,-434.208121,-71.596634)">
                        <path d="M498.616,773.532C509.616,722.039 549.811,683.816 597.655,683.816C653.959,683.816 699.671,736.754 699.671,801.959C699.671,867.163 653.959,920.101 597.655,920.101C554.492,920.101 517.554,888.991 502.663,845.093C511.267,860.171 525.585,875.666 547.65,891.077C562.015,902.094 579.199,908.505 597.655,908.505C648.019,908.505 688.909,860.763 688.909,801.959C688.909,743.154 648.019,695.413 597.655,695.413C579.675,695.413 562.903,701.497 548.767,711.997C548.767,711.997 513.716,737.015 498.616,773.532Z"/>
                    </g>
                    <g transform="matrix(1,0,0,1,-237.66961,-137.939463)">
                        <path d="M444.708,930.859L446.421,945.501C284.671,853.548 421.174,729.661 421.174,729.661L422.889,744.323L422.811,744.402L422.778,744.123C422.778,744.123 311.792,853.957 444.597,931.017L444.569,930.775L444.708,930.859Z"/>
                    </g>
                    <g transform="matrix(-0.628983,-1.069107,-1.004004,0.590681,1307.834454,635.000848)">
                        <ellipse cx="464.531" cy="807.198" rx="26.082" ry="37.301" style="fill:url(#_Radial6);stroke:black;stroke-width:3.14px;"/>
                    </g>
                    <g transform="matrix(-0.628983,1.069107,-1.004004,-0.590681,1322.866871,758.077013)">
                        <ellipse cx="464.531" cy="807.198" rx="26.082" ry="37.301" style="fill:url(#_Radial7);stroke:black;stroke-width:3.14px;"/>
                    </g>
                    <g id="Right-Antenna1" serifId="Right Antenna" transform="matrix(2.099254,-0.514393,0.611152,2.49413,-221.186608,91.64825)">
                        <path d="M96.208,256.205C96.208,256.205 34.104,240.471 73.592,217.314" style="fill:rgb(206,255,0);fill-opacity:0;"/>
                        <path d="M74.669,216.683C74.974,217.051 74.983,217.074 74.889,217.517C74.775,218.054 74.659,218.017 74.143,218.348C57.885,228.775 62.3,235.779 66.517,239.77C70.711,243.741 77.26,246.694 83.382,249.459C84.035,249.754 88.588,251.764 90.256,252.469C91.145,252.845 92.165,253.328 94.451,254.255C94.623,254.325 94.616,254.333 96.586,255.147C97.051,255.339 97.12,255.29 97.365,255.674C97.369,255.681 97.466,256.524 97.463,256.527C97.253,256.742 97.122,257.038 96.831,257.169C96.281,257.418 96.247,257.321 95.633,257.236C90.388,256.503 83.456,254.832 77.302,252.106C76.505,251.753 66.849,247.573 61.751,241.408C57.413,236.162 54.185,227.156 71.203,217.323C71.333,217.248 72.767,216.419 72.846,216.405C73.749,216.243 73.747,216.22 73.826,216.232C74.343,216.31 74.368,216.319 74.669,216.683Z"/>
                    </g>
                    <g id="Left-Antenna1" serifId="Left Antenna" transform="matrix(2.099254,0.514393,0.611152,-2.49413,-220.91999,1308.160927)">
                        <path d="M96.208,256.205C96.208,256.205 34.104,240.471 73.592,217.314" style="fill:rgb(206,255,0);fill-opacity:0;"/>
                        <path d="M74.669,216.683C74.575,216.57 73.954,215.819 72.637,216.515C64.756,220.682 55.558,227.431 58.552,236.649C61.08,244.428 72.371,250.948 79.945,253.659C82.111,254.435 83.031,254.722 85.52,255.407C85.826,255.491 88.043,256.036 89.017,256.222C93.397,257.059 94.791,257.152 95.825,257.262C96.345,257.316 96.37,257.375 96.832,257.167C96.84,257.163 97.466,256.523 97.466,256.519C97.434,256.236 97.526,255.921 97.366,255.671C97.314,255.588 97.214,255.431 96.235,254.986C95.073,254.457 95.088,254.437 93.924,253.912C91.701,252.91 91.727,252.873 89.52,251.851L83.848,249.206C83.515,249.052 83.519,249.047 79.711,247.251C72.514,243.857 60.498,238.015 63.338,229.65C64.265,226.921 66.85,223.153 74.343,218.22C74.754,217.95 74.801,217.952 74.892,217.52C74.987,217.075 74.975,217.053 74.669,216.683Z"/>
                    </g>
                </g>
            </g>
        </g>
    </g>
    <defs>
        <linearGradient id="_Linear1" x1="0" y1="0" x2="1" y2="0" gradientUnits="userSpaceOnUse" gradientTransform="matrix(474.205657,0,0,16.134047,728.981547,476.130504)"><stop offset="0" style="stop-color:rgb(97,238,248);stop-opacity:1"/><stop offset="1" style="stop-color:rgb(3,79,175);stop-opacity:1"/></linearGradient>
        <radialGradient id="_Radial2" cx="0" cy="0" r="1" gradientUnits="userSpaceOnUse" gradientTransform="matrix(121.006884,163.817805,-222.090925,89.256605,821.692885,691.274076)"><stop offset="0" style="stop-color:rgb(206,255,0);stop-opacity:0.92"/><stop offset="0.55" style="stop-color:rgb(189,234,0);stop-opacity:0.92"/><stop offset="1" style="stop-color:rgb(124,153,0);stop-opacity:0.92"/></radialGradient>
        <radialGradient id="_Radial3" cx="0" cy="0" r="1" gradientUnits="userSpaceOnUse" gradientTransform="matrix(410.885604,295.462557,-476.879163,254.574577,618.814256,665.204885)"><stop offset="0" style="stop-color:rgb(239,255,171);stop-opacity:1"/><stop offset="0.33" style="stop-color:rgb(176,217,0);stop-opacity:1"/><stop offset="1" style="stop-color:rgb(129,159,0);stop-opacity:1"/></radialGradient>
        <linearGradient id="_Linear4" x1="0" y1="0" x2="1" y2="0" gradientUnits="userSpaceOnUse" gradientTransform="matrix(308.042969,156.462989,-156.434416,308.099233,608.433389,592.133398)"><stop offset="0" style="stop-color:rgb(77,194,232);stop-opacity:0.95"/><stop offset="1" style="stop-color:rgb(0,87,153);stop-opacity:0.95"/></linearGradient>
        <linearGradient id="_Linear5" x1="0" y1="0" x2="1" y2="0" gradientUnits="userSpaceOnUse" gradientTransform="matrix(402.422866,35.897715,-9.86552,55.0069,529.193328,666.016872)"><stop offset="0" style="stop-color:rgb(85,217,239);stop-opacity:0.95"/><stop offset="0.42" style="stop-color:rgb(58,176,212);stop-opacity:0.95"/><stop offset="1" style="stop-color:rgb(0,87,153);stop-opacity:0.95"/></linearGradient>
        <radialGradient id="_Radial6" cx="0" cy="0" r="1" gradientUnits="userSpaceOnUse" gradientTransform="matrix(37.823152,-23.695258,22.252337,40.275739,441.539286,821.601952)"><stop offset="0" style="stop-color:rgb(194,194,194);stop-opacity:1"/><stop offset="0" style="stop-color:rgb(176,176,176);stop-opacity:1"/><stop offset="0.69" style="stop-color:rgb(121,121,121);stop-opacity:1"/><stop offset="0.81" style="stop-color:rgb(117,117,117);stop-opacity:1"/><stop offset="0.85" style="stop-color:rgb(108,108,108);stop-opacity:1"/><stop offset="0.89" style="stop-color:rgb(99,99,99);stop-opacity:1"/><stop offset="1" style="stop-color:rgb(71,71,71);stop-opacity:1"/></radialGradient>
        <radialGradient id="_Radial7" cx="0" cy="0" r="1" gradientUnits="userSpaceOnUse" gradientTransform="matrix(37.823152,-23.695258,22.252337,40.275739,441.539286,821.601952)"><stop offset="0" style="stop-color:rgb(194,194,194);stop-opacity:1"/><stop offset="0" style="stop-color:rgb(176,176,176);stop-opacity:1"/><stop offset="0.69" style="stop-color:rgb(121,121,121);stop-opacity:1"/><stop offset="0.81" style="stop-color:rgb(117,117,117);stop-opacity:1"/><stop offset="0.85" style="stop-color:rgb(108,108,108);stop-opacity:1"/><stop offset="0.89" style="stop-color:rgb(99,99,99);stop-opacity:1"/><stop offset="1" style="stop-color:rgb(71,71,71);stop-opacity:1"/></radialGradient>
    </defs>
</svg>
